<svg xmlns="http://www.w3.org/2000/svg" xmlns:xlink="http://www.w3.org/1999/xlink" viewBox="0,0,256,256" width="50" height="50"><g fill-opacity="0" fill="#dddddd" fill-rule="nonzero" stroke="none" stroke-width="1" stroke-linecap="butt" stroke-linejoin="miter" stroke-miterlimit="10" stroke-dasharray="" stroke-dashoffset="0" font-family="none" font-weight="none" font-size="none" text-anchor="none" style="mix-blend-mode: normal"><path d="M0,256v-256h256v256z" id="bgRectangle"></path></g><g fill="#ffffff" fill-rule="nonzero" stroke="none" stroke-width="1" stroke-linecap="butt" stroke-linejoin="miter" stroke-miterlimit="10" stroke-dasharray="" stroke-dashoffset="0" font-family="none" font-weight="none" font-size="none" text-anchor="none" style="mix-blend-mode: normal"><g transform="scale(10.66667,10.66667)"><path d="M3,5v14c0,1.105 0.895,2 2,2h14c1.105,0 2,-0.895 2,-2v-14c0,-1.105 -0.895,-2 -2,-2h-14c-1.105,0 -2,0.895 -2,2zM8.268,6h2.476l0.018,4.345l0.354,-0.317c0.495,-0.436 0.911,-0.589 1.699,-0.618c0.519,-0.015 0.73,0.006 1.093,0.135c0.797,0.267 1.36,0.815 1.653,1.623c0.114,0.317 0.129,0.647 0.15,3.214l0.024,2.868h-2.505v-2.341c0,-2.306 -0.006,-2.335 -0.161,-2.616c-0.22,-0.372 -0.457,-0.542 -0.832,-0.583c-0.638,-0.07 -1.081,0.146 -1.333,0.668c-0.12,0.24 -0.135,0.492 -0.141,2.517c-0.009,1.236 -0.024,2.329 -0.024,2.356h-2.467"></path></g></g></svg>